<svg xmlns="http://www.w3.org/2000/svg" width="89.598" height="54.839" viewBox="0 0 89.598 54.839"><defs><style>.a{fill:#9b7e4b;}</style></defs><g transform="translate(-1091.86 -1475.829)"><path class="a" d="M1135.08,1530.668h3.64c-.163-.184-.368-.417-.62-.707s-.488-.569-.675-.805a7.308,7.308,0,0,1-2.2,1.46C1135.179,1530.636,1135.129,1530.649,1135.08,1530.668Z"/><path class="a" d="M1132.687,1523.386a3.169,3.169,0,0,0-.8,1.263,4.532,4.532,0,0,0-.244,1.451,3.008,3.008,0,0,0,3.127,3.13,3.371,3.371,0,0,0,1.1-.162,3.408,3.408,0,0,0,1-.588l-2.031-2.443Q1133.683,1524.644,1132.687,1523.386Z"/><path class="a" d="M1136.432,1520.046a3.357,3.357,0,0,0,.369-1.53,2.161,2.161,0,0,0-.441-1.437,1.429,1.429,0,0,0-1.148-.524,1.45,1.45,0,0,0-1.091.43,1.556,1.556,0,0,0-.416,1.126,3.1,3.1,0,0,0,.385,1.364,13.726,13.726,0,0,0,1.184,1.853A3.482,3.482,0,0,0,1136.432,1520.046Z"/><path class="a" d="M1176.788,1526.658q-2.249-2.234-6.243-9.4a73.082,73.082,0,0,0-5.759-9.244,21.239,21.239,0,0,0-4.5-4.37q10.5-3.366,10.5-13.465a13.089,13.089,0,0,0-4.621-10.308q-4.621-4.044-12.345-4.044h-16.4v40.527a2.432,2.432,0,0,1,.961,2,3.376,3.376,0,0,1-.6,1.97,6.336,6.336,0,0,1-2.005,1.7q1.131,1.456,1.75,2.189t1.647,1.928a9.776,9.776,0,0,0,.982-1.78,3.8,3.8,0,0,0,.327-1.363q0-.314-.462-.505a7.1,7.1,0,0,0-1.3-.359v-.79h5.807v.79a6.865,6.865,0,0,0-1.4.229,2.21,2.21,0,0,0-.888.593,3.45,3.45,0,0,0-.463.661q-.274.473-.524.91-.3.531-.644,1.114a11.982,11.982,0,0,1-.832,1.217,18.539,18.539,0,0,0,1.574,1.68,5.506,5.506,0,0,0,1.013.764,4.2,4.2,0,0,0,1.133.379,9.589,9.589,0,0,0,1.361.182v.8h6.4v-1.59q-3.255,0-4.535-1.92t-1.28-6.792v-15.084h4.122a9.193,9.193,0,0,1,6.1,2.343q2.756,2.343,7.616,10.82a108.015,108.015,0,0,0,7.767,12.223h10.414v-1.59A7.5,7.5,0,0,1,1176.788,1526.658Zm-25.1-23.667h-6.249v-25.058h5.337a12.848,12.848,0,0,1,9.352,3.436,11.986,11.986,0,0,1,3.536,9,12.987,12.987,0,0,1-3.189,9.164Q1157.289,1502.991,1151.691,1502.991Z"/><path class="a" d="M1126.6,1527.158q-1.279,1.92-4.534,1.92v1.59h8.73a4.175,4.175,0,0,1-1.081-.66,3.41,3.41,0,0,1-1.242-2.734,4.142,4.142,0,0,1,.224-1.445,4.192,4.192,0,0,1,.722-1.206,5.181,5.181,0,0,1,1.184-1.045,12.338,12.338,0,0,1,1.589-.868,9.987,9.987,0,0,1-1.3-2.017,4.164,4.164,0,0,1-.369-1.7,3,3,0,0,1,1.246-2.469,4.706,4.706,0,0,1,2.982-.972,5.492,5.492,0,0,1,1.05.106v-39.824H1119.5q-7.723,0-12.345,4.044a13.089,13.089,0,0,0-4.621,10.308q0,10.1,10.5,13.465a21.216,21.216,0,0,0-4.5,4.37,72.842,72.842,0,0,0-5.759,9.244q-4,7.165-6.244,9.4a7.492,7.492,0,0,1-4.67,2.42v1.59h10.415a108.154,108.154,0,0,0,7.767-12.223q4.86-8.478,7.615-10.82a9.193,9.193,0,0,1,6.1-2.343h4.122v15.084Q1127.876,1525.237,1126.6,1527.158Zm-4.968-24.167q-5.6,0-8.788-3.459a12.987,12.987,0,0,1-3.189-9.164,11.983,11.983,0,0,1,3.537-9,12.846,12.846,0,0,1,9.351-3.436h5.337v25.058Z"/></g></svg>