<svg id="Layer_1" data-name="Layer 1" xmlns="http://www.w3.org/2000/svg" viewBox="0 0 1000 800"><defs><style>.cls-1{fill:#9b7e4b;}</style></defs><path class="cls-1" d="M71.32,699.38l36.79,51.07,17.6,0L87,698.61l1.07-.21a38.86,38.86,0,0,0,21.43-11.53,29.53,29.53,0,0,0,8.4-20.71,38.07,38.07,0,0,0-3.72-17.09,25.45,25.45,0,0,0-11.11-11.35,43.68,43.68,0,0,0-15.32-4.9,179.83,179.83,0,0,0-20.18-.94H47.25V750.49H62.53V699.08l8.58,0ZM62.53,688.1V643.54H72.62c9.22,0,16.27,1.3,20.95,3.86,6.36,3.42,9.58,9.8,9.58,18.93,0,8.13-3.78,14.11-11.24,17.76-5.37,2.66-12.6,4-21.46,4Z"/><path class="cls-1" d="M131,718.09a31.93,31.93,0,0,0,11.34,25c7.55,6.59,16.89,9.94,27.77,9.94a45.17,45.17,0,0,0,20.31-4.9,65.78,65.78,0,0,0,17.9-13.22l.52-.52,14.22,16.07,18.44,0L220,725.57l14.27-12-8.82-9.13-14.19,11.69-32.33-35.91.65-.44c6.4-4.28,11.33-8.55,14.65-12.71,4-5,6-10.09,6-15.16,0-7.15-2.62-12.76-7.78-16.67s-12-5.93-20.12-5.93c-8.62,0-15.53,2-20.57,5.85s-7.52,9.49-7.52,16.77a28.07,28.07,0,0,0,3.9,13.55,63.59,63.59,0,0,0,9.66,12.37l.57.58-7.92,5.26a42.12,42.12,0,0,0-14.52,14.68A39.2,39.2,0,0,0,131,718.09Zm31.87-75a12.74,12.74,0,0,1,9.06-3.17c4.24,0,7.59,1,9.93,3s3.59,5,3.59,9c0,3.37-1.64,6.7-4.9,9.91-.86.82-4,3.25-9.64,7.43l-.18.14H169.5l-4.19-4.3c-1.43-1.73-3.21-3.91-3.72-4.7a16.17,16.17,0,0,1-2.1-8.55A11.48,11.48,0,0,1,162.88,643.11Zm-10.07,56.52c2.34-2.45,6.93-6,14-10.73l.49-.33,33,36.43-.49.46a66.88,66.88,0,0,1-14.07,10.2A34.8,34.8,0,0,1,169.57,740a23.59,23.59,0,0,1-17-6.78,22.11,22.11,0,0,1-7-16.35A24.38,24.38,0,0,1,152.81,699.63Z"/><path class="cls-1" d="M275.92,699.38l36.79,51.07,17.6,0-38.73-51.88,1.07-.21a38.86,38.86,0,0,0,21.43-11.53,29.54,29.54,0,0,0,8.41-20.71,38.07,38.07,0,0,0-3.73-17.09,25.4,25.4,0,0,0-11.11-11.35,43.68,43.68,0,0,0-15.32-4.9,179.76,179.76,0,0,0-20.17-.94H251.85V750.49h15.28V699.08l8.58,0Zm-8.79-11.28V643.54h10.09c9.23,0,16.27,1.3,20.95,3.86,6.36,3.42,9.58,9.8,9.58,18.93,0,8.13-3.78,14.11-11.24,17.76-5.37,2.66-12.6,4-21.46,4Z"/><path class="cls-1" d="M463.42,646.47c-11.75-9.68-28-14.59-48.41-14.59H385.49V750.49H413c21,0,37.74-5,49.85-14.93,12.8-10.45,19.29-25.61,19.29-45.06C482.17,671.5,475.87,656.68,463.42,646.47Zm-12.7,80.21c-9.61,7.61-22.17,11.46-37.33,11.46H400.77V644.23h11.17c16.83,0,30.12,3.68,39.49,10.94,10.26,7.87,15.46,19.76,15.46,35.33S461.45,718.13,450.72,726.68Z"/><polygon class="cls-1" points="565.39 644.23 565.39 631.88 498.01 631.88 498.01 750.49 565.39 750.49 565.39 738.14 513.29 738.14 513.29 692.22 563.76 692.22 563.76 679.87 513.29 679.87 513.29 644.23 565.39 644.23"/><path class="cls-1" d="M616.73,753.06c11.83,0,21.9-3.58,29.93-10.63a34.19,34.19,0,0,0,12.07-26.74c0-7.11-2.07-13.13-6.16-17.89-4.72-5.36-14.55-10.78-29.2-16.09l-9.24-3.43a28.62,28.62,0,0,1-10.19-6.15,16.54,16.54,0,0,1-4.72-12,18.35,18.35,0,0,1,5.71-13.24,18.77,18.77,0,0,1,13.78-5.77A36.37,36.37,0,0,1,632.54,644,33.42,33.42,0,0,1,644,651.75l8.52-11A46.25,46.25,0,0,0,638,632.1a55.78,55.78,0,0,0-18.58-2.78c-10,0-18.69,3-25.71,8.83s-10.52,13.58-10.52,23c0,8.14,2.26,14.79,6.71,19.78,3.88,4.34,10.05,8.09,18.35,11.12l9.05,3.26c8.09,3,13.68,5.47,16.61,7.44,5.84,4,8.8,9,8.8,15a20.11,20.11,0,0,1-6.92,15.58c-4.57,4.1-10.44,6.18-17.46,6.18a35.91,35.91,0,0,1-16.78-4.36,161.5,161.5,0,0,1-13.83-9.26L579,737.32A141.4,141.4,0,0,0,593.34,747,49.5,49.5,0,0,0,616.73,753.06Z"/><rect class="cls-1" x="674.57" y="631.88" width="15.28" height="118.6"/><path class="cls-1" d="M770.67,629.32c-18.54,0-34.49,6.13-47.38,18.23s-19.41,26.89-19.41,44c0,16.52,6.44,31.06,19.14,43.21s28.2,18.32,46,18.32,32.66-5.44,43.75-16.18S829.51,712.4,829.51,696v-4.64H781.66v13.72h29.75l-.07.75a34.84,34.84,0,0,1-13.28,24.11c-7.81,6.36-17.33,9.58-28.29,9.58-14.11,0-26.26-4.79-36.11-14.25s-14.87-21-14.87-34.24c0-14,5-25.66,14.69-34.78s22.13-13.72,36.83-13.72c7.32,0,15,2.1,22.75,6.25a55.44,55.44,0,0,1,17.34,14l11.94-9.57C808.27,637.36,790.89,629.32,770.67,629.32Z"/><polygon class="cls-1" points="953.42 631.88 938.69 631.88 938.69 719.74 937.54 718.63 843.53 628.6 843.53 750.49 858.81 750.49 858.81 661.81 953.42 754.14 953.42 631.88"/><path class="cls-1" d="M484,600.9h36.85c-1.65-1.86-3.72-4.22-6.28-7.15s-4.94-5.76-6.83-8.15q-11.14,10.3-22.24,14.78C485,600.58,484.51,600.72,484,600.9Z"/><path class="cls-1" d="M459.8,527.2A32.08,32.08,0,0,0,451.75,540a45.79,45.79,0,0,0-2.47,14.68q0,14,8.94,22.84t22.71,8.84a33.94,33.94,0,0,0,11.15-1.64,34.45,34.45,0,0,0,10.09-6L481.62,554Q469.89,539.93,459.8,527.2Z"/><path class="cls-1" d="M497.71,493.4a34.1,34.1,0,0,0,3.73-15.49q0-9.24-4.47-14.54a14.47,14.47,0,0,0-11.62-5.31,14.66,14.66,0,0,0-11,4.36,15.74,15.74,0,0,0-4.21,11.39q0,6.09,3.89,13.81a139.72,139.72,0,0,0,12,18.75A35.26,35.26,0,0,0,497.71,493.4Z"/><path class="cls-1" d="M906.16,560.32Q883.41,537.71,843,465.2q-36.06-65.42-58.29-93.56T739.1,327.4q106.29-34.06,106.28-136.27,0-63.4-46.77-104.34t-125-40.93h-166V456.05a24.61,24.61,0,0,1,9.73,20.22,34.1,34.1,0,0,1-6.1,19.94Q505.23,505,491,513.41q11.46,14.75,17.72,22.16t16.66,19.52a98.62,98.62,0,0,0,9.94-18q3.31-8.22,3.31-13.8,0-3.16-4.68-5.11a72.26,72.26,0,0,0-13.19-3.63v-8h58.78v8q-9.57.84-14.15,2.32a22.44,22.44,0,0,0-9,6,34.81,34.81,0,0,0-4.68,6.69q-2.78,4.79-5.31,9.22-3,5.37-6.52,11.26a119.54,119.54,0,0,1-8.41,12.33,186.87,186.87,0,0,0,15.93,17,55.81,55.81,0,0,0,10.25,7.74,42.82,42.82,0,0,0,11.47,3.84,98.16,98.16,0,0,0,13.77,1.84v8.14h64.82V584.81q-32.94,0-45.9-19.43t-13-68.75V344h41.72q33.81,0,61.71,23.72T769.4,477.2Q815.53,558.74,848,600.9h105.4V584.81Q928.91,582.92,906.16,560.32Zm-254-239.54H588.9V67.15h54q58.85,0,94.64,34.78T773.36,193q0,57.73-32.28,92.74T652.14,320.78Z"/><path class="cls-1" d="M398.15,565.38q-12.94,19.44-45.9,19.43V600.9h88.37a42.33,42.33,0,0,1-10.95-6.67q-12.56-10.63-12.56-27.68a42.06,42.06,0,0,1,2.26-14.62,42.49,42.49,0,0,1,7.31-12.21,52.61,52.61,0,0,1,12-10.57,124,124,0,0,1,16.09-8.79q-9.47-12-13.2-20.41a42.35,42.35,0,0,1-3.73-17.26q0-15.15,12.62-25t30.18-9.84a56.2,56.2,0,0,1,10.63,1.07V45.86H326.34q-78.16,0-124.95,40.93T154.62,191.13q0,102.21,106.28,136.27-23.34,16.1-45.58,44.24T157,465.2q-40.42,72.52-63.19,95.12T46.58,584.81V600.9H152q32.51-42.17,78.62-123.7,49.18-85.83,77.07-109.52T369.38,344H411.1V496.63Q411.1,545.93,398.15,565.38Zm-50.29-244.6q-56.66,0-88.94-35T226.64,193q0-56.29,35.8-91.09t94.64-34.78h54V320.78Z"/></svg>